<svg width="1260" height="74" xmlns="http://www.w3.org/2000/svg"><g fill="none" fill-rule="evenodd"><path d="M50.697 40.555c4.08-3.571 5.098-7.766 2.43-11.324-2.663-3.55-8.231-2.436-10.664 1.943l-.437.786-.437-.786c-2.415-4.347-7.545-5.554-10.71-2.39-2.954 2.955-2.26 7.532 1 10.793 1.94 1.94 5.318 4.841 10.128 8.698a861.029 861.029 0 0 1 8.69-7.72zm3.23-11.924c3.021 4.03 1.867 8.793-2.572 12.676a869.536 869.536 0 0 0-8.994 7.996l-.316.283-.331-.265c-5.014-4.01-8.525-7.02-10.541-9.037-3.614-3.613-4.4-8.806-1-12.207 3.483-3.483 8.982-2.407 11.855 1.897 2.95-4.36 8.912-5.324 11.898-1.343z" fill="#222" fill-rule="nonzero"/><g transform="translate(420)"><circle stroke="#FC5D65" opacity=".1" cx="42" cy="38" r="20"/><path d="M41.5 16v4.36" stroke="#FC5D65" opacity=".3"/><path d="M42 55.102c-6.93-5.705-11.824-9.985-14.68-12.837-4.285-4.28-6.427-11.412-1.428-16.404C30.89 20.868 38.43 22.698 42 29.117c3.57-6.42 12.454-8.249 16.738-2.543 4.285 5.706 2.142 12.125-3.57 17.117A2379.674 2379.674 0 0 1 42 55.102z" fill="#FC5D65"/></g><path d="M882 64.705v3.704M850.01 36.615h7.083" stroke="#FC5D65" opacity=".51"/><path d="M904.463 36.615h8.884" stroke="#FC5D65" opacity=".41"/><path d="M899.493 19.459l4.357-4.263M860 58.958L865.571 53" stroke="#FC5D65" opacity=".51"/><path d="M901.378 57.002l-4.97-5.044" stroke="#FC5D65" opacity=".36"/><path d="M882 49c-4.742-3.873-8.09-6.791-10.044-8.753-2.932-2.942-4.398-7.847-.978-11.28 3.42-3.433 8.58-2.175 11.022 2.24 2.443-4.415 8.521-5.673 11.452-1.75 2.932 3.924 1.466 8.338-2.442 11.771A757.424 757.424 0 0 1 882 49z" fill="#FC5D65"/><path d="M134.068 40.125c3.688-3.288 4.497-6.688 2.362-9.587-1.787-2.428-5.821-1.606-7.747 1.925l-2.633 4.83-2.634-4.83c-1.954-3.584-5.742-4.492-8.022-2.17-2.232 2.275-1.679 5.991 1.113 8.836 1.859 1.894 5.013 4.682 9.435 8.336a919.23 919.23 0 0 1 8.126-7.34zm-8.018-9.098c.45-1.027 1.45-2.027 1.97-2.532 3.24-2.992 8.126-3.404 10.826.264 3.338 4.535 1.67 9.637-2.782 13.605a974.242 974.242 0 0 0-10.014 9.07c-5.564-4.535-9.459-7.936-11.684-10.204-3.338-3.401-5.008-9.07-1.113-13.038 3.142-3.201 7.733-2.713 10.85.275.397.378 1.397 1.533 1.947 2.56z" fill="#222" fill-rule="nonzero"/><path d="M125.967 48c-4.249-3.465-7.222-6.064-8.922-7.796-2.549-2.6-3.823-6.93-.85-9.963 2.974-3.032 7.648-1.732 9.772 2.166 2.124-3.898 7.222-5.198 9.771-1.732 2.55 3.465 1.275 7.363-2.124 10.395a744.09 744.09 0 0 0-7.647 6.93z" fill="#FFCACF"/><g transform="translate(504)"><circle stroke="#FC5D65" opacity=".2" cx="41.5" cy="37" r="23"/><path d="M41.5 9v7.36" stroke="#FC5D65" opacity=".51"/><path d="M26.5 21.5l4 4" stroke="#FC5D65" opacity=".34"/><path d="M42 55.102c-6.93-5.705-11.824-9.985-14.68-12.837-4.285-4.28-6.427-11.412-1.428-16.404C30.89 20.868 38.43 22.698 42 29.117c3.57-6.42 12.454-8.249 16.738-2.543 4.285 5.706 2.142 12.125-3.57 17.117A2379.674 2379.674 0 0 1 42 55.102z" fill="#FC5D65"/></g><path d="M934.01 36.615h4.083" stroke="#FC5D65" opacity=".51"/><path d="M990.275 36.615h7.072" stroke="#FC5D65" opacity=".41"/><path d="M985.671 17.327l2.179-2.131M944 58.958l4.193-4.64" stroke="#FC5D65" opacity=".51"/><path d="M987.707 59.338l-5.876-5.947" stroke="#FC5D65" opacity=".36"/><path d="M966 48c-4.377-3.521-7.468-6.174-9.272-7.957-2.706-2.675-4.059-7.134-.902-10.255 3.157-3.12 7.92-1.977 10.174 2.036 2.255-4.013 7.866-5.157 10.571-1.59 2.706 3.567 1.353 7.58-2.254 10.7A696.292 696.292 0 0 1 966 48z" fill="#FC5D65"/><g><path d="M219.112 39.645c4.066-3.742 4.958-7.61 2.604-10.911-1.97-2.764-6.418-1.828-8.542 2.19l-2.904 5.499-2.904-5.498c-2.155-4.079-6.332-5.112-8.846-2.469-2.46 2.588-1.85 6.818 1.227 10.056 2.05 2.156 5.528 5.33 10.405 9.488 3.264-3.077 6.25-5.862 8.96-8.355zM210 29.333c.67-1.034 1.68-2.061 2.242-2.617 3.502-3.295 8.935-3.717 11.853.322 3.608 4.992 1.804 10.609-3.006 14.977-3.207 2.912-6.815 6.24-10.824 9.985-6.013-4.992-10.222-8.737-12.627-11.233-3.608-3.744-5.412-9.985-1.203-14.353 3.396-3.525 8.357-2.987 11.727.302.428.416 1.244 1.487 1.838 2.617z" fill="#222" fill-rule="nonzero"/><path d="M210.033 49.434c-5.188-4.179-8.82-7.312-10.895-9.401-3.112-3.134-4.669-8.357-1.037-12.013 3.631-3.656 9.338-2.09 11.932 2.611 2.594-4.7 8.82-6.267 11.932-2.089 3.113 4.179 1.557 8.88-2.594 12.535a904.719 904.719 0 0 0-9.338 8.357z" fill="#FF8D93"/></g><g transform="translate(588)"><circle stroke="#FC5D65" opacity=".263" cx="41.5" cy="37" r="26"/><path d="M42 5.025v9.36M42 54.705v3.704M23.5 36.615h4.046" stroke="#FC5D65" opacity=".51"/><path d="M21.5 16.5l5.731 5.385" stroke="#FC5D65" opacity=".42"/><path d="M42 53c-6.566-5.282-11.202-9.26-13.908-11.936-4.059-4.012-6.088-10.7-1.353-15.381C31.475 21 38.618 22.717 42 28.736c3.382-6.02 11.798-7.735 15.857-2.385 4.06 5.35 2.03 11.37-3.382 16.05A1044.438 1044.438 0 0 1 42 53z" fill="#FC5D65"/></g><g><path d="M1077.811 36.615h3.536" stroke="#FC5D65" opacity=".41"/><path d="M1028 58.958l2.097-2.32" stroke="#FC5D65" opacity=".51"/><path d="M1071.707 59.338l-4.733-4.633" stroke="#FC5D65" opacity=".36"/><path d="M1050 49c-4.742-3.873-8.09-6.791-10.044-8.753-2.932-2.942-4.398-7.847-.978-11.28 3.42-3.433 8.58-2.175 11.022 2.24 2.443-4.415 8.521-5.673 11.452-1.75 2.932 3.924 1.466 8.338-2.442 11.771A757.424 757.424 0 0 1 1050 49z" fill="#FC5D65"/></g><g><path d="M294.05 52c-5.878-4.934-9.93-8.535-12.155-10.802-3.338-3.402-4.537-10.038-.642-14.006s10.015-4.096 12.797 1.006c2.781-5.102 9.458-4.974 12.796-.439 3.338 4.535 2.286 10.687-2.165 14.655-2.967 2.646-6.511 5.84-10.631 9.586z" fill="#222"/><path d="M294.066 51.434c-5.94-4.892-10.097-8.56-12.473-11.006-3.564-3.669-5.345-9.783-1.188-14.063 4.158-4.28 10.691-2.446 13.661 3.057 2.97-5.503 10.097-7.337 13.661-2.446 3.564 4.892 1.782 10.395-2.97 14.675a1043.916 1043.916 0 0 0-10.69 9.783z" fill="#FC6065"/></g><g transform="translate(672)"><circle stroke="#FC5D65" opacity=".343" cx="41.5" cy="36.5" r="27"/><path d="M42 5.025v7.36M42 57.705v7.704M20.5 36.615h4.046M55.5 36.615l5 .135M54 26.25L57.729 22M28.599 50.125L30.902 48" stroke="#FC5D65" opacity=".51"/><path d="M19.979 14.771l5.993 6.021" stroke="#FC5D65" opacity=".45"/><path d="M42 52c-6.201-4.93-10.58-8.643-13.135-11.14-3.833-3.745-5.75-9.987-1.278-14.356 4.472-4.37 11.219-2.768 14.413 2.85 3.194-5.618 11.143-7.22 14.976-2.226 3.834 4.993 1.917 10.611-3.194 14.98A983.507 983.507 0 0 1 42 52z" fill="#FC5D65"/></g><g><path d="M1155.707 59.338l-2.367-2.7" stroke="#FC5D65" opacity=".36"/><path d="M1134 49c-4.977-3.836-8.443-6.735-10.397-8.696-2.931-2.943-4.652-8.305-1.232-11.738s9.186-2.315 11.629 2.1c2.443-4.415 8.702-5.575 11.633-1.652 2.931 3.924 1.285 8.781-2.623 12.214A757.424 757.424 0 0 1 1134 49z" fill="#FC5D65"/></g><g fill="#FC5D65"><path d="M378 53c-6.201-5.35-10.58-9.36-13.135-12.035-3.833-4.012-5.75-10.699-1.278-15.379 4.472-4.68 11.219-2.59 14.413 3.428 3.194-6.017 11.143-8.108 14.976-2.76 3.834 5.35 1.917 11.367-3.194 16.048-3.408 3.12-7.335 6.686-11.782 10.698z"/></g><g transform="translate(756)"><circle stroke="#FC5D65" opacity=".243" cx="41.5" cy="36.5" r="27"/><path d="M42 5.025v3.312M42 59.705v8.704M14.01 36.615h7.083" stroke="#FC5D65" opacity=".51"/><path d="M59.007 36.615h4.34" stroke="#FC5D65" opacity=".41"/><path d="M56.998 22.317L61.729 17M26 51.958L28.798 49" stroke="#FC5D65" opacity=".51"/><path d="M54.725 50.116l-1.995-1.84" stroke="#FC5D65" opacity=".36"/><path d="M19.979 14.771l4.643 4.688" stroke="#FC5D65" opacity=".45"/><path d="M42 51c-5.472-4.578-9.335-8.026-11.59-10.344-3.382-3.478-5.073-9.274-1.127-13.331 3.946-4.057 9.898-2.57 12.717 2.646 2.819-5.217 9.832-6.703 13.214-2.067 3.383 4.637 1.692 9.854-2.818 13.911A880.213 880.213 0 0 1 42 51z" fill="#FC5D65"/></g><g fill="#FC5D65" fill-rule="nonzero"><path d="M1229.926 28.63c3.022 4.03 1.868 8.794-2.57 12.677a869.536 869.536 0 0 0-8.995 7.996l-.316.283-.331-.265c-5.014-4.01-8.525-7.02-10.541-9.037-3.614-3.613-4.4-8.806-1-12.207 3.483-3.483 8.982-2.407 11.855 1.897 2.95-4.36 8.912-5.324 11.898-1.343z"/></g></g></svg>