<svg xmlns:xlink="http://www.w3.org/1999/xlink" width="18" height="18"><use fill="#FF5757" transform="translate(1 1)" xlink:href="#path0_stroke"/><g fill="#FF5757" transform="translate(7.91 3.91)"><use xlink:href="#path1_fill"/><use xlink:href="#path2_fill"/></g><defs><path id="path0_stroke" d="M8-1a9 9 0 0 0-9 9h2a7 7 0 0 1 7-7v-2zm-9 9a9 9 0 0 0 9 9v-2a7 7 0 0 1-7-7h-2zm9 9a9 9 0 0 0 9-9h-2a7 7 0 0 1-7 7v2zm9-9a9 9 0 0 0-9-9v2a7 7 0 0 1 7 7h2z"/><path id="path1_fill" d="M2.182.873C2.182.39 1.693 0 1.09 0S0 .39 0 .873l.182 5.672c0 .402.407.728.909.728S2 6.947 2 6.545L2.182.873z"/><path id="path2_fill" d="M2.182 9.09A1.091 1.091 0 1 0 0 9.092a1.091 1.091 0 0 0 2.182 0z"/></defs></svg>