# WaveFront *.obj file (generated by CINEMA 4D)

mtllib ./framer-figure-top.mtl

v -51.0799446105957 615.97076416015625 138.53915405273438
v -240.36564636230469 615.97076416015625 138.53915405273438
v -51.0799446105957 803.80706787109375 134.49815368652344
v -237.61329650878906 617.63751220703125 134.49815368652344
v 143.18801879882812 615.97076416015625 138.53915405273438
v -51.0799446105957 807.8402099609375 329.26193237304688
v 143.18801879882812 807.8402099609375 329.26193237304688
v -45.3479118347168 611.90545654296875 -59.76980972290039
v -45.3479118347168 611.90545654296875 128.76612854003906
v 143.18801879882812 611.90545654296875 128.76612854003906
v 143.18801879882812 611.90545654296875 -59.76980972290039
v -51.0799446105957 617.63751220703125 -59.76980972290039
v -51.0799446105957 806.1734619140625 -59.76980972290039
v -51.0799446105957 617.63751220703125 134.49815368652344
v -55.13705444335938 807.85626220703125 322.27389526367188
v -238.63307189941406 624.7181396484375 140.23019409179688
v -55.13705444335938 807.85626220703125 140.23019409179688
v -45.3479118347168 811.90545654296875 134.49815368652344
v -45.3479118347168 811.90545654296875 -59.76980972290039
v 143.18801879882812 811.90545654296875 -59.76980972290039
v 143.18801879882812 811.90545654296875 134.49815368652344
v 143.18801879882812 811.90545654296875 327.5709228515625
v -45.3479118347168 811.90545654296875 327.5709228515625
v 148.92005920410156 806.1734619140625 319.52304077148438
v 148.92005920410156 806.1734619140625 134.49815368652344
v 148.92005920410156 620.03619384765625 134.49815368652344
v 148.92005920410156 806.1734619140625 -59.76980972290039
v 148.92005920410156 617.63751220703125 -59.76980972290039
v 143.18801879882812 617.63751220703125 -65.50183868408203
v 143.18801879882812 806.1734619140625 -65.50183868408203
v -45.3479118347168 806.1734619140625 -65.50183868408203
v -45.3479118347168 617.63751220703125 -65.50183868408203
v -49.94913101196289 614.40887451171875 135.673583984375
v -48.2914924621582 613.9931640625 136.01423645019531
v -45.91405868530273 612.3070068359375 131.955322265625
v -48.21713256835938 612.97552490234375 132.74623107910156
v -47.95945358276367 612.544189453125 129.40483093261719
v -50.46160507202148 615.0335693359375 131.89418029785156
v -50.70890808105469 615.04638671875 134.36503601074219
v -52.08139038085938 616.37420654296875 135.13301086425781
v -52.08139038085938 615.52239990234375 137.19830322265625
v -242.34455871582031 616.5455322265625 137.30038452148438
v -240.81503295898438 615.5601806640625 137.16387939453125
v -239.44967651367188 616.383056640625 135.10093688964844
v -241.47871398925781 617.05487060546875 135.82133483886719
v -239.87734985351562 618.37139892578125 135.38507080078125
v -240.427001953125 621.81146240234375 138.17729187011719
v -242.0374755859375 619.41412353515625 137.80783081054688
v -240.87623596191406 621.5147705078125 139.48416137695312
v -241.64556884765625 617.2841796875 138.67170715332031
v -50.67455673217773 809.66546630859375 329.54318237304688
v -52.18033981323242 808.38525390625 328.74374389648438
v -54.06931686401367 808.41632080078125 325.550048828125
v -52.14151382446289 809.85736083984375 327.06332397460938
v -52.6014289855957 809.83074951171875 324.85684204101562
v -48.54296875 811.50762939453125 327.0504150390625
v -49.02420425415039 811.04840087890625 328.67599487304688
v -46.11433029174805 811.3619384765625 329.36846923828125
v -48.77241897583008 809.47674560546875 330.17697143554688
v -50.83193206787109 808.0921630859375 134.63374328613281
v -50.33301162719727 806.98187255859375 132.378662109375
v -47.61161041259766 810.810546875 132.39486694335938
v -49.22314834594727 810.55096435546875 135.37039184570312
v -48.53256988525391 811.51068115234375 137.2872314453125
v -52.59591293334961 809.82763671875 139.66427612304688
v -51.9989128112793 809.50830078125 137.30180358886719
v -54.69304656982422 807.41314697265625 137.62287902832031
v -52.92538833618164 805.64892578125 135.12547302246094
v 145.65888977050781 614.56329345703125 135.8096923828125
v 145.79533386230469 616.41571044921875 138.09690856933594
v 148.29273986816406 618.18695068359375 136.33627319335938
v 147.737548828125 615.8597412109375 134.22592163085938
v 148.26466369628906 616.5465087890625 131.28271484375
v 145.6751708984375 612.91754150390625 128.73738098144531
v 145.5946044921875 613.1724853515625 132.32838439941406
v 143.18801879882812 612.28948974609375 131.99667358398438
v 143.18801879882812 613.9503173828125 135.98930358886719
v 145.78373718261719 809.1865234375 329.04946899414062
v 143.18801879882812 809.3470458984375 329.94891357421875
v 143.18801879882812 811.33038330078125 329.1239013671875
v 145.78373718261719 810.8056640625 328.3759765625
v 145.80218505859375 811.25970458984375 326.66424560546875
v 148.30552673339844 808.7760009765625 323.17706298828125
v 147.7750244140625 808.912841796875 326.10861206054688
v 148.30552673339844 806.93023681640625 323.94485473632812
v 145.80218505859375 807.65240478515625 328.16476440429688
v -47.85071563720703 613.0626220703125 -62.27261352539062
v -45.3479118347168 612.53277587890625 -62.37711715698242
v -45.3479118347168 615.03021240234375 -64.87452697753906
v -47.85071563720703 615.13470458984375 -64.34470367431641
v -47.95521926879883 617.63751220703125 -64.87452697753906
v -50.45262908935547 617.63751220703125 -62.37711715698242
v -49.92280578613281 615.13470458984375 -62.27261352539062
v -50.45262908935547 615.03021240234375 -59.76980972290039
v -47.95521926879883 612.53277587890625 -59.76980972290039
v 145.69082641601562 613.0626220703125 -62.27261352539062
v 145.79533386230469 612.53277587890625 -59.76980972290039
v 148.29273986816406 615.03021240234375 -59.76980972290039
v 147.76292419433594 615.13470458984375 -62.27261352539062
v 148.29273986816406 617.63751220703125 -62.37711715698242
v 145.79533386230469 617.63751220703125 -64.87452697753906
v 145.69082641601562 615.13470458984375 -64.34470367431641
v 143.18801879882812 615.03021240234375 -64.87452697753906
v 143.18801879882812 612.53277587890625 -62.37711715698242
v -49.92280578613281 808.67626953125 -62.27261352539062
v -50.45262908935547 806.1734619140625 -62.37711715698242
v -47.95521926879883 806.1734619140625 -64.87452697753906
v -47.85071563720703 808.67626953125 -64.34470367431641
v -45.3479118347168 808.78076171875 -64.87452697753906
v -45.3479118347168 811.2781982421875 -62.37711715698242
v -47.85071563720703 810.74835205078125 -62.27261352539062
v -47.95521926879883 811.2781982421875 -59.76980972290039
v -50.45262908935547 808.78076171875 -59.76980972290039
v 145.69082641601562 810.74835205078125 -62.27261352539062
v 143.18801879882812 811.2781982421875 -62.37711715698242
v 143.18801879882812 808.78076171875 -64.87452697753906
v 145.69082641601562 808.67626953125 -64.34470367431641
v 145.79533386230469 806.1734619140625 -64.87452697753906
v 148.29273986816406 806.1734619140625 -62.37711715698242
v 147.76292419433594 808.67626953125 -62.27261352539062
v 148.29273986816406 808.78076171875 -59.76980972290039
v 145.79533386230469 811.2781982421875 -59.76980972290039
v 145.99122619628906 811.17327880859375 134.49815368652344
v 148.18785095214844 808.9766845703125 134.49815368652344
# 124 vertices

vn 0 1 0
vn 1 0 0
vn 0 0 -1
vn -1 0 0
vn 0 -1 0
vn -0.70641618967056 0.70779669284821 0
vn 0 0 0
vn 0 -0.70498430728912 0.70922285318375
vn 0 -0.70498430728912 0.70922291278839
vn 0.24479481577873 0.96957492828369 0.00002567584306
vn 0.49332335591316 0.86984598636627 0.00001624580182
vn 0.53008037805557 0.84037274122238 0.11308600753546
vn 0.18423449993134 0.96085399389267 0.20692336559296
vn -0.28713670372963 -0.30292931199074 0.9087278842926
vn -0.1988682448864 -0.26490011811256 0.94354617595673
vn 0.14961719512939 -0.4489318728447 0.88095110654831
vn 0.18095465004444 -0.53417760133743 0.8257782459259
vn -0.64293909072876 0.74389863014221 -0.18232978880405
vn -0.53354632854462 0.83672565221786 -0.12336335331202
vn -0.5239195227623 0.8502351641655 0.05107352882624
vn -0.69882619380951 0.70608097314835 0.11441890895367
vn 0.97016906738281 0.24242934584618 -0.0000236183223
vn 0.87000662088394 0.49304005503654 -0.00000932333751
vn 0.86727195978165 0.48697406053543 -0.10341954231262
vn 0.97580474615097 0.1562060713768 -0.15298609435558
vn 0.15298745036125 -0.15298832952976 -0.97631418704987
vn 0.4848447740078 -0.1034377142787 -0.86846196651459
vn 0.48484480381012 0.10343779623508 -0.86846190690994
vn 0.15298745036125 0.15298832952976 -0.97631418704987
vn 0.97766184806824 -0.14496654272079 -0.15219068527222
vn 0.88130038976669 -0.46149131655693 -0.10166295617819
vn 0.89345157146454 -0.44823777675629 0.02876193448901
vn 0.97262436151505 -0.21743397414684 0.08200182765722
vn 0.1034379824996 0.48484370112419 -0.86846250295639
vn -0.10343795269728 0.48484364151955 -0.86846256256104
vn -0.15298782289028 0.15298826992512 -0.97631412744522
vn -0.9763919711113 -0.15248949825764 -0.15298922359943
vn -0.86846154928207 -0.10343799740076 -0.48484542965889
vn -0.86846154928207 0.10343799740076 -0.48484542965889
vn -0.97653931379318 0.1524766087532 -0.15205872058868
vn 0.17787571251392 -0.97207927703857 -0.15304265916348
vn 0.10343932360411 -0.86845970153809 -0.48484846949577
vn -0.10343974083662 -0.86845964193344 -0.48484843969345
vn -0.15361489355564 -0.97621542215347 -0.15298971533775
vn -0.27815359830856 0.95803451538086 -0.06928483396769
vn -0.57500112056732 0.80271178483963 -0.15820068120956
vn -0.52658742666245 0.84399825334549 -0.10184620320797
vn -0.18881338834763 0.97000026702881 -0.15313068032265
vn -0.94481390714645 -0.1695109307766 -0.28034391999245
vn -0.86593687534332 -0.477833122015 -0.14774563908577
vn -0.86848616600037 -0.48479598760605 -0.10346309095621
vn -0.15724161267281 -0.98493415117264 0.07197114080191
vn -0.11756104230881 -0.96750885248184 0.22384378314018
vn 0.15769226849079 -0.9564967751503 0.24545274674892
vn 0.22281125187874 -0.97213977575302 0.07279675453901
vn -0.77093756198883 0.52134120464325 0.36586698889732
vn -0.8736874461174 0.36134031414986 0.32573518157005
vn -0.77882033586502 0.62328684329987 -0.07037346810102
vn -0.4901742041111 0.14795796573162 -0.85897481441498
vn -0.5274031162262 0.33518731594086 -0.78070187568665
vn -0.41492161154747 0.32097494602203 -0.85136073827744
vn -0.19370856881142 -0.05626283958554 -0.97944450378418
vn 0.86704158782959 -0.39298886060715 0.30626571178436
vn 0.90213388204575 -0.24773332476616 0.35324591398239
vn 0.99332702159882 0.04708980768919 0.10528074204922
vn -0.07843087613583 -0.8916711807251 0.44583755731583
vn -0.08264429867268 -0.99001187086105 0.11422092467546
vn -0.28603678941727 -0.95754581689835 -0.0359016880393
vn -0.34915807843208 -0.73160254955292 0.58553075790405
vn -0.46279481053352 -0.88136172294617 0.09498668462038
vn -0.46112868189812 -0.87583613395691 0.14237757027149
vn -0.11741706728935 -0.89657843112946 0.42703664302826
vn -0.46341279149055 -0.69712924957275 -0.54704606533051
vn -0.24083350598812 -0.84378159046173 -0.47961640357971
vn -0.58738929033279 0.76718199253082 0.25769287347794
vn -0.49396204948425 0.69048207998276 0.52842783927917
vn -0.63720345497131 0.07348661869764 0.76718413829803
vn -0.56240558624268 0.74204045534134 -0.36479562520981
vn -0.67760163545609 0.43619921803474 -0.59210324287415
vn -0.86364901065826 0.40839418768883 -0.29550725221634
vn 0.80008435249329 -0.56206899881363 0.20962695777416
vn 0.47903007268906 -0.76319605112076 0.43366119265556
vn 0.48661807179451 -0.65439474582672 0.57876622676849
vn 0.61992835998535 0.59210008382797 0.51488471031189
vn 0.62024855613708 -0.05421629548073 0.78252947330475
vn 0.16540716588497 0.38095524907112 0.90967774391174
vn -0.4446043074131 -0.44460400938988 -0.77759516239166
vn -0.44460582733154 -0.77759343385696 -0.44460555911064
vn -0.10343818366528 -0.48484364151955 -0.86846256256104
vn 0.77759486436844 -0.44460427761078 -0.44460466504097
vn 0.4446048438549 -0.77759379148483 -0.44460588693619
vn 0.51887375116348 -0.84869170188904 -0.10243251919746
vn -0.44460409879684 0.44460412859917 -0.77759522199631
vn -0.77759504318237 0.44460418820381 -0.44460445642471
vn -0.48484495282173 0.10343783348799 -0.8684618473053
vn 0.44460365176201 0.44460418820381 -0.77759546041489
vn 0.44460299611092 0.77759623527527 -0.44460347294807
vn 0.1034370213747 0.86846405267715 -0.48484113812447
vn -0.65955799818039 -0.75009846687317 -0.04832811653614
vn -0.48112344741821 -0.87637943029404 0.02189448848367
vn -0.65311193466187 -0.74536281824112 -0.13371263444424
vn -0.83830392360687 -0.09243702143431 -0.53730988502502
vn -0.78311920166016 0.42704916000366 -0.45205450057983
vn -0.6246645450592 0.24762351810932 -0.74059218168259
vn -0.65999615192413 0.57799911499023 -0.4799188375473
vn -0.86396503448486 0.03451661020517 0.50236743688583
vn -0.7101292014122 -0.23727461695671 0.66288554668427
vn -0.87479245662689 0.17365846037865 -0.45230627059937
vn -0.17382724583149 -0.19922877848148 -0.96441274881363
vn -0.51465344429016 -0.69760930538177 0.49847075343132
vn -0.33260959386826 0.86973756551743 0.36459210515022
vn -0.27204313874245 0.95883995294571 0.08135399222374
vn -0.10056683421135 0.79962551593781 0.59201806783676
vn -0.10979151725769 0.53304886817932 0.83893066644669
vn -0.0943054407835 0.97855287790298 0.18314120173454
vn -0.38269054889679 -0.0570909306407 0.92211091518402
vn -0.58947145938873 0.68140852451324 -0.43382686376572
vn -0.34473446011543 0.93176585435867 -0.11388842016459
vn -0.6123840212822 0.62332910299301 -0.48625776171684
vn 0.53568941354752 -0.82118713855743 0.19669398665428
vn 0.57453536987305 -0.81783086061478 0.03258527070284
vn 0.12637926638126 -0.85626268386841 0.50084185600281
vn 0.15775670111179 -0.75009775161743 0.6422353386879
vn 0.91647505760193 0.15240786969662 0.36992612481117
vn 0.90119457244873 0.42682972550392 0.07526414096355
vn 0.52773505449295 -0.51482504606247 0.67561143636703
vn 0.14959391951561 0.9395734667778 0.30793398618698
vn -0.77759516239166 -0.44460424780846 -0.44460418820381
vn -0.48484501242638 -0.10343783348799 -0.8684618473053
vn -0.48497942090034 -0.86839020252228 -0.10340880602598
vn -0.15298783779144 -0.15298828482628 -0.97631412744522
vn 0.44460344314575 -0.44460415840149 -0.77759557962418
vn 0.86846154928207 -0.10343763977289 -0.4848455786705
vn 0.10343776643276 -0.48484370112419 -0.86846256256104
vn -0.44460341334343 0.7775958776474 -0.44460365176201
vn -0.10343699902296 0.8684641122818 -0.48484113812447
vn -0.87898337841034 0.4660257101059 -0.10103577375412
vn 0.77759492397308 0.44460442662239 -0.44460433721542
vn 0.86846154928207 0.10343772172928 -0.48484554886818
vn 0.4869696199894 0.86727494001389 -0.10341569036245
vn 0.15619869530201 0.97580790519714 -0.15297350287437
vn -0.97262614965439 0.23235854506493 0.0028032772243
vn -0.00004836945664 -0.92664808034897 -0.37593001127243
vn 0.00006689646398 -0.44116160273552 -0.89742767810822
# 144 normals

vt 0.97133982181549 1 0
vt 0.97125422954559 1 0
vt 0.02874579280615 1 0
vt 0.02866015583277 1 0
vt 0 0.04065358638763 0
vt 0 0.97133982181549 0
vt 0.97133982181549 0.97133982181549 0
vt 0.97133982181549 0.02866017818451 0
vt 0.02866015583277 0.02866017818451 0
vt 0.02866015583277 0.97133982181549 0
vt 0.95950794219971 0.95950794219971 0
vt 0.02866015583277 0 0
vt 0.97133982181549 0 0
vt 0 1 0
vt 1 0.96655398607254 0
vt 1 0.97133982181549 0
vt 1 0.04065358638763 0
vt 0.02311542071402 0.97688460350037 0
vt 1 0.97967356443405 0
vt 1 0.02032649517059 0
vt 0.02311542071402 0.02311539649963 0
vt 0 0.95950794219971 0
vt 0 0.5 0
vt 0 0.02866017818451 0
vt 0 0.02032649517059 0
vt 0 0.97967356443405 0
vt 0.98089319467545 1 0
vt 0.9808361530304 1 0
vt 0.9904180765152 0.0135509967804 0
vt 0.02499220333993 0.01541030406952 0
vt 0 0.99044662714005 0
vt 0.97133982181549 0.99044662714005 0
vt 0.00955337751657 0.02866017818451 0
vt 0.00955337751657 0.97133982181549 0
vt 0.97133982181549 0.0095534324646 0
vt 0.00955338496715 0.01754903793335 0
vt 0.02866016328335 0.99044662714005 0
vt 0.97133982181549 0.99044662714005 0
vt 0.02866016328335 0.0095534324646 0
vt 0.00560941314325 0.0134973526001 0
vt 0.00955338496715 0.97133982181549 0
vt 0.3428867161274 0.0095534324646 0
vt 0.0191067699343 0.98766869306564 0
vt 0.97318810224533 0.9885983467102 0
vt 0 0.9730052947998 0
vt 0.99229484796524 0.03480756282806 0
vt 0.99229484796524 0.96999752521515 0
vt 0 0.023104429245 0
vt 1 1 0
vt 1 0 0
vt 0 0 0
vt 0.99044662714005 1 0
vt 0.9904180765152 1 0
vt 0.9808361530304 0.0067754983902 0
vt 0.02686898782849 0.0077052116394 0
vt 0.97125422954559 0 0
vt 0.02874577045441 0 0
vt 0 1.0095534324646 0
vt 0.97133982181549 1.0095534324646 0
vt 0 1.02866017818451 0
vt 0.97133982181549 1.02866017818451 0
vt -0.00955339986831 0.02866017818451 0
vt -0.00955339986831 0.97133982181549 0
vt -0.02866017818451 0.02866017818451 0
vt -0.02866017818451 0.97133982181549 0
vt 0.97133982181549 -0.0095534324646 0
vt 0.0191067699343 -0.00555562973022 0
vt 0.97133982181549 -0.02866005897522 0
vt 0.02866015583277 -0.02866005897522 0
vt 0.02866017073393 1.0095534324646 0
vt 0.97133982181549 1.0095534324646 0
vt 0.02866017818451 1.02866017818451 0
vt 0.97133982181549 1.02866017818451 0
vt 0.02866017073393 -0.0095534324646 0
vt 0.02866017818451 -0.02866005897522 0
vt -0.0174413304776 0.0269947052002 0
vt -0.00955338496715 0.97133982181549 0
vt -0.04049207270145 0.04049205780029 0
vt -0.02866015583277 0.97133982181549 0
vt 0.65711325407028 -0.0095534324646 0
vt 0.00955338496715 1.0039975643158 0
vt 0.97503632307053 1.00585687160492 0
vt 0 1.0203263759613 0
vt 0.97688460350037 1.02311539649963 0
vt 0 0.9865026473999 0
vt 0.98458969593048 0.02896153926849 0
vt 0.98458969593048 0.97344106435776 0
vt 0.97688460350037 0.02311539649963 0
vt 0.97688460350037 0.97688460350037 0
vt 0 0.0258823633194 0
# 90 texture coordinates

o framer-figure-top
usemtl default
f 18/4/1 23/3/1 22/2/1 21/1/1
f 28/8/2 27/7/2 25/6/2 26/5/2
f 32/8/3 31/7/3 30/10/3 29/9/3
f 14/9/4 3/11/4 13/10/4 12/9/4
f 21/13/1 20/7/1 19/10/1 18/12/1
f 11/8/5 10/7/5 9/10/5 8/9/5
f 17/14/6 16/14/6 15/14/6
f 26/17/2 25/16/2 24/15/2
f 7/21/8 6/20/9 1/19/9 5/18/8
f 14/24/3 4/23/3 3/22/3
f 6/26/9 2/23/9 1/25/9
f 22/2/13 82/28/12 123/27/11 21/1/10
f 7/21/17 79/30/16 59/29/15 6/20/14
f 15/14/21 55/14/20 65/14/19 17/14/18
f 27/7/25 121/32/24 124/31/23 25/6/22
f 30/10/29 118/34/28 101/33/27 29/9/26
f 26/5/33 73/36/32 98/35/31 28/8/30
f 31/7/36 109/38/35 116/37/34 30/10/29
f 13/10/40 106/34/39 92/33/38 12/9/37
f 8/9/44 88/39/43 104/35/42 11/8/41
f 19/10/48 112/41/47 62/40/46 18/12/45
f 12/9/37 94/39/51 38/42/50 14/9/49
f 10/7/55 76/44/54 35/43/53 9/10/52
f 16/14/58 49/14/57 53/14/56 15/14/21
f 4/23/62 46/23/61 68/45/60 3/22/59
f 24/15/65 85/47/64 71/46/63 26/17/33
f 2/23/69 43/23/68 41/48/67 1/25/66
f 35/51/53 34/50/72 33/49/71 36/14/70
f 44/51/74 43/50/68 42/49/73 45/14/73
f 53/51/56 52/50/77 51/49/76 54/14/75
f 62/51/46 61/50/80 60/49/79 63/14/78
f 71/51/63 70/50/83 69/49/82 72/14/81
f 80/51/86 79/50/86 78/49/85 81/14/84
f 89/51/89 88/50/43 87/49/88 90/14/87
f 98/51/31 97/50/92 96/49/91 99/14/90
f 107/51/95 106/50/39 105/49/94 108/14/93
f 116/51/34 115/50/98 114/49/97 117/14/96
f 38/51/50 37/50/100 36/49/70 39/14/99
f 41/51/101 40/50/101 39/49/99 33/14/71
f 39/50/99 36/49/70 33/14/71
f 37/51/100 9/50/52 35/49/53 36/14/70
f 40/51/102 14/50/49 38/49/50 39/14/102
f 34/51/72 1/50/66 41/49/67 33/14/71
f 47/51/105 46/50/61 45/49/104 48/14/103
f 50/51/107 49/50/57 48/49/106 42/14/106
f 48/50/103 45/49/104 42/14/108
f 46/51/61 4/50/62 44/49/109 45/14/104
f 49/51/57 16/50/58 47/49/105 48/14/103
f 43/51/68 2/50/69 50/49/107 42/14/110
f 56/51/112 55/50/20 54/49/75 57/14/111
f 59/51/114 58/50/113 57/49/111 51/14/76
f 57/50/111 54/49/75 51/14/76
f 55/51/20 15/50/21 53/49/56 54/14/75
f 58/51/113 23/50/115 56/49/112 57/14/111
f 52/51/77 6/50/14 59/49/15 51/14/116
f 65/51/19 64/50/118 63/49/78 66/14/117
f 68/51/60 67/50/119 66/49/117 60/14/79
f 66/50/117 63/49/78 60/14/79
f 64/51/118 18/50/45 62/49/46 63/14/78
f 67/51/119 17/50/18 65/49/19 66/14/117
f 61/51/80 3/50/59 68/49/60 60/14/79
f 74/51/121 73/50/32 72/49/81 75/14/120
f 77/51/122 76/50/54 75/49/120 69/14/82
f 75/50/120 72/49/81 69/14/82
f 73/51/32 26/50/33 71/49/63 72/14/81
f 76/51/54 10/50/55 74/49/121 75/14/120
f 70/51/83 5/50/123 77/49/122 69/14/82
f 83/51/125 82/50/12 81/49/84 84/14/124
f 86/51/126 85/50/64 84/49/124 78/14/85
f 84/50/124 81/49/84 78/14/85
f 82/51/12 22/50/13 80/49/127 81/14/84
f 85/51/64 24/50/65 83/49/125 84/14/124
f 79/51/16 7/50/17 86/49/126 78/14/85
f 92/51/38 91/50/129 90/49/87 93/14/128
f 95/51/130 94/50/51 93/49/128 87/14/88
f 93/50/128 90/49/87 87/14/88
f 91/51/129 32/50/131 89/49/89 90/14/87
f 94/51/51 12/50/37 92/49/38 93/14/128
f 88/51/43 8/50/44 95/49/130 87/14/88
f 101/51/27 100/50/133 99/49/90 102/14/132
f 104/51/42 103/50/134 102/49/132 96/14/91
f 102/50/132 99/49/90 96/14/91
f 100/51/133 28/50/30 98/49/31 99/14/90
f 103/51/134 29/50/26 101/49/27 102/14/132
f 97/51/92 11/50/41 104/49/42 96/14/91
f 110/51/136 109/50/35 108/49/93 111/14/135
f 113/51/137 112/50/47 111/49/135 105/14/94
f 111/50/135 108/49/93 105/14/94
f 109/51/35 31/50/36 107/49/95 108/14/93
f 112/51/47 19/50/48 110/49/136 111/14/135
f 106/51/39 13/50/40 113/49/137 105/14/94
f 119/51/139 118/50/28 117/49/96 120/14/138
f 122/51/140 121/50/24 120/49/138 114/14/97
f 120/50/138 117/49/96 114/14/97
f 118/51/28 30/50/29 116/49/34 117/14/96
f 121/51/24 27/50/25 119/49/139 120/14/138
f 115/51/98 20/50/141 122/49/140 114/14/97
f 82/28/12 83/53/125 124/52/23 123/27/11
f 83/53/125 24/49/65 25/49/22 124/52/23
f 79/30/86 80/55/86 58/54/113 59/29/114
f 80/55/127 22/57/13 23/56/115 58/54/113
f 55/14/20 56/14/112 64/14/118 65/14/19
f 56/14/112 23/14/115 18/14/45 64/14/118
f 121/32/24 122/59/140 123/58/11 124/31/23
f 122/59/140 20/61/141 21/60/10 123/58/11
f 118/34/28 119/63/139 100/62/133 101/33/27
f 119/63/139 27/65/25 28/64/30 100/62/133
f 73/36/32 74/67/121 97/66/92 98/35/31
f 74/67/121 10/69/55 11/68/41 97/66/92
f 109/38/35 110/71/136 115/70/98 116/37/34
f 110/71/136 19/73/48 20/72/141 115/70/98
f 106/34/39 107/63/95 91/62/129 92/33/38
f 107/63/95 31/65/36 32/64/131 91/62/129
f 88/39/43 89/74/89 103/66/134 104/35/42
f 89/74/89 32/75/131 29/68/26 103/66/134
f 112/41/47 113/77/137 61/76/80 62/40/46
f 113/77/137 13/79/40 3/78/142 61/76/80
f 94/39/51 95/74/130 37/80/100 38/42/50
f 95/74/130 8/75/44 9/68/52 37/80/100
f 76/44/54 77/82/122 34/81/72 35/43/53
f 77/82/122 5/84/123 1/83/66 34/81/72
f 49/14/57 50/14/107 52/14/77 53/14/56
f 50/14/107 2/14/69 6/14/14 52/14/77
f 46/23/61 47/23/105 67/85/119 68/45/60
f 47/23/105 16/23/58 17/14/18 67/85/119
f 85/47/64 86/87/126 70/86/83 71/46/63
f 86/87/126 7/89/17 5/88/123 70/86/83
f 43/23/68 44/23/74 40/90/143 41/48/67
f 44/23/109 4/23/62 14/24/144 40/90/144

