# WaveFront *.obj file (generated by CINEMA 4D)

mtllib ./framer-model-bottom.mtl

v -51.48236083984375 612.034912109375 -65.52001190185547
v -257.96713256835938 412.03494262695312 140.96562194824219
v -257.96713256835938 412.03494262695312 327.99609375
v -434.62796020507812 412.03494262695312 327.99609375
v -434.62796020507812 412.03494262695312 140.96562194824219
v -257.96713256835938 407.293701171875 330.05673217773438
v -257.96713256835938 213.75798034667969 149.46577453613281
v -429.19479370117188 407.293701171875 330.05673217773438
v -251.48236083984375 405.5501708984375 140.96562194824219
v -251.48236083984375 214.15374755859375 140.96562194824219
v -251.48236083984375 405.5501708984375 319.56036376953125
v -426.71697998046875 405.5501708984375 134.48085021972656
v -257.96713256835938 214.8150634765625 134.48085021972656
v -257.96713256835938 405.5501708984375 134.48085021972656
v -436.81576538085938 407.17816162109375 322.03750610351562
v -265.13214111328125 213.12705993652344 140.96562194824219
v -436.81576538085938 407.17816162109375 140.96562194824219
v -255.13565063476562 410.725830078125 138.13414001464844
v -257.96713256835938 411.32525634765625 138.01591491699219
v -257.96713256835938 408.4998779296875 135.1905517578125
v -255.13565063476562 408.38165283203125 135.78994750976562
v -255.01742553710938 405.5501708984375 135.1905517578125
v -252.19204711914062 405.5501708984375 138.01591491699219
v -252.79145812988281 408.38165283203125 138.13414001464844
v -252.19204711914062 408.4998779296875 140.96562194824219
v -255.01742553710938 411.32525634765625 140.96562194824219
v -255.03213500976562 410.78054809570312 329.02630615234375
v -255.01042175292969 411.30636596679688 327.04833984375
v -252.17855834960938 408.494873046875 323.39096069335938
v -252.77890014648438 408.62619018554688 326.63784790039062
v -252.17855834960938 406.34188842773438 324.32669067382812
v -255.01042175292969 407.09780883789062 328.87747192382812
v -255.03213500976562 408.9027099609375 329.84246826171875
v -257.96713256835938 409.07257080078125 330.81082153320312
v -257.96713256835938 411.3726806640625 329.8111572265625
v -436.18011474609375 410.9022216796875 329.44573974609375
v -433.90048217773438 411.40011596679688 330.02291870117188
v -431.36514282226562 409.18765258789062 331.006591796875
v -434.41290283203125 409.18701171875 330.24017333984375
v -432.80023193359375 407.52734375 329.36322021484375
v -436.19415283203125 407.4761962890625 325.795166015625
v -437.022216796875 409.16452026367188 327.53787231445312
v -437.74826049804688 409.14154052734375 324.44631958007812
v -436.71029663085938 411.39212036132812 327.20745849609375
v -435.75363159179688 410.77261352539062 138.03221130371094
v -436.49111938476562 411.3636474609375 140.96562194824219
v -437.54754638671875 409.01837158203125 140.96562194824219
v -436.6162109375 408.857666015625 138.03221130371094
v -435.68365478515625 406.99566650390625 138.00950622558594
v -431.30325317382812 406.28948974609375 135.17787170410156
v -433.504150390625 408.6075439453125 135.77836608886719
v -430.3096923828125 408.49517822265625 135.17787170410156
v -433.74111938476562 411.3079833984375 138.00950622558594
v -256.198486328125 209.13009643554688 142.85411071777344
v -255.696533203125 211.43714904785156 146.05683898925781
v -252.50608825683594 211.69387817382812 141.88575744628906
v -253.35856628417969 209.53897094726562 139.37681579589844
v -252.41322326660156 211.9984130859375 138.57112121582031
v -255.58383178710938 212.31306457519531 135.39486694335938
v -256.205322265625 209.69612121582031 136.37028503417969
v -258.62088012695312 212.04151916503906 135.47857666015625
v -262.16107177734375 211.16481018066406 138.68928527832031
v -259.2332763671875 209.00102233886719 139.37324523925781
v -261.94036865234375 210.81845092773438 141.64912414550781
v -258.37734985351562 211.11627197265625 145.85700988769531
# 65 vertices

vn 0 0 -1
vn 0 0 0
vn 1 0 0
vn 0 -0.68223267793655 0.73113512992859
vn -0.74895244836807 -0.66262376308441 0
vn 0 1 0
vn -0.13334318995476 0.03195073083043 -0.99055474996567
vn -0.3876901268959 -0.23791891336441 -0.89055651426315
vn -0.30594250559807 -0.4498433470726 -0.83907103538513
vn 0.02261790074408 -0.19144774973392 -0.98124217987061
vn 0.97265064716339 0.15240293741226 -0.17528283596039
vn 0.86021518707275 0.10203634947538 -0.49961832165718
vn 0.86776655912399 -0.21595187485218 -0.44760021567345
vn 0.97855234146118 -0.20422574877739 -0.02696501836181
vn 0.17420394718647 0.15236823260784 -0.97284990549088
vn 0.10347126424313 0.48480552434921 -0.86847990751266
vn -0.07825917005539 0.42872098088264 -0.90004098415375
vn 0.20244359970093 -0.50373357534409 0.83980298042297
vn 0.5408039689064 -0.48791143298149 0.68518131971359
vn 0.43411248922348 -0.69260132312775 0.57606399059296
vn 0.05177784338593 -0.75991809368134 0.64795339107513
vn 0.15389667451382 0.97604006528854 -0.15382343530655
vn 0.48505893349648 0.86834764480591 -0.10339333862066
vn 0.52547955513 0.84315055608749 0.113878890872
vn 0.17850667238235 0.96186262369156 0.20725759863853
vn -0.7954084277153 -0.59150564670563 0.13208529353142
vn -0.59909516572952 -0.72937315702438 0.33030259609222
vn -0.50742584466934 -0.82933336496353 0.23393416404724
vn -0.65857380628586 -0.75067585706711 -0.05259509012103
vn -0.13593816757202 -0.60667163133621 0.78324347734451
vn -0.09645599871874 -0.5162410736084 0.850994348526
vn 0.14603774249554 -0.4197239279747 0.89582633972168
vn -0.22242486476898 0.94914382696152 0.22283001244068
vn -0.33039122819901 0.92876470088959 0.1680410951376
vn -0.30556881427765 0.94133937358856 -0.14320553839207
vn -0.20539335906506 0.96262985467911 -0.17651446163654
vn 0.44460415840149 0.44460475444794 -0.77759486436844
vn 0.44460415840149 0.77759486436844 -0.44460478425026
vn 0.10339594632387 0.86836177110672 -0.48503309488297
vn 0.91040790081024 0.16377913951874 0.37991300225258
vn 0.60834366083145 0.60131269693375 0.51801645755768
vn 0.90111595392227 0.42654126882553 0.07779837399721
vn -0.25783228874207 0.15334443747997 0.95394337177277
vn -0.13045336306095 0.28283488750458 0.95025593042374
vn -0.80063956975937 -0.01399412099272 -0.59898281097412
vn -0.51866972446442 0.60978674888611 -0.59928441047668
vn -0.90020674467087 0.40836095809937 -0.15122562646866
vn 0.79907602071762 -0.56397306919098 0.2083550542593
vn 0.11144728213549 -0.93392968177795 0.33963933587074
vn 0.83298289775848 -0.46512788534164 0.29965907335281
vn 0.77759420871735 0.44460502266884 -0.44460505247116
vn 0.49904972314835 0.10202800482512 -0.86054611206055
vn 0.86847692728043 0.48481041193008 -0.10347284376621
vn 0.60865390300751 -0.03326413780451 0.79273825883865
vn 0.89138865470886 -0.25022429227829 0.37790742516518
vn 0.15737454593182 0.39585769176483 0.9047264456749
vn 0.99109727144241 0.02798735722899 0.13016495108604
vn 0.14600805938244 0.9400047659874 0.30833861231804
vn -0.67114418745041 -0.58869159221649 0.45056381821632
vn -0.46494096517563 -0.59429812431335 0.65623134374619
vn -0.3389892578125 -0.73567652702332 0.58640122413635
vn -0.9555104970932 0.17329649627209 0.23867966234684
vn -0.94667249917984 0.29880276322365 0.12053241580725
vn -0.66239607334137 -0.38475069403648 0.6428050994873
vn -0.86185759305954 -0.49872812628746 0.09204190224409
vn -0.33426934480667 0.88226342201233 0.33147442340851
vn -0.16947548091412 0.92827260494232 0.33104085922241
vn -0.38689580559731 0.17551442980766 -0.90526586771011
vn -0.69989114999771 -0.46841979026794 -0.53919869661331
vn -0.1127934679389 0.8446718454361 -0.52326583862305
vn -0.90563130378723 -0.39913073182106 -0.14327117800713
vn -0.85199588537216 -0.48342859745026 -0.20099711418152
vn 0.6332585811615 -0.42428901791573 -0.64727300405502
vn 0.44108965992928 -0.20777840912342 -0.87307959794998
vn -0.33967337012291 -0.93371725082397 -0.11311118304729
vn -0.21160684525967 -0.54452753067017 -0.81161093711853
vn -0.58499443531036 -0.68299388885498 -0.43737953901291
vn -0.23665596544743 -0.83201813697815 0.50173681974411
vn 0.0889922901988 -0.99225038290024 -0.08671525865793
# 79 normals

vt 0 0 0
vt 0.04689680784941 0 0
vt 0.5 0 0
vt 0.94640588760376 0 0
vt 1 0 0
vt 0.95762813091278 0 0
vt 0.03879549726844 0 0
vt 0.03326319530606 0.96673679351807 0
vt 0.96673679351807 0.96673679351807 0
vt 0.96673679351807 0.03326320648193 0
vt 0.03326319530606 0.03326320648193 0
vt 0.03126453980803 -0.33333325386047 0
vt 0.5 -0.33333325386047 0
vt 0.03780773282051 0.97782456874847 0
vt 0.95995980501175 0.97782456874847 0
vt 0.63841873407364 0.33333337306976 0
vt 0.16666667163372 0.33333337306976 0
vt 0.96370059251785 0.02217555046082 0
vt 0.03510729596019 0.02217555046082 0
vt 0 1 0
vt 1 1 0
vt 0.01563226990402 -0.66666650772095 0
vt 0.5 -0.66666650772095 0
vt 0 -1 0
vt 0.5 -1 0
vt 0.04235227033496 0.98891228437424 0
vt 0.95318287611008 0.98891228437424 0
vt 0.04689680784941 1 0
vt 0.94640588760376 1 0
vt 0.31920936703682 0.66666668653488 0
vt -0.16666667163372 0.66666668653488 0
vt -0.5 1 0
vt 0.96066433191299 0.01108777523041 0
vt 0.03695139661431 0.01108777523041 0
# 34 texture coordinates

o framer-figure-bottom
usemtl default
f 14/1/1 13/1/1 12/1/1
f 11/4/3 10/3/3 9/2/3
f 8/5/4 7/5/4 6/5/4
f 17/7/5 16/3/5 15/6/5
f 5/11/6 4/10/6 3/9/6 2/8/6
f 13/1/10 61/1/9 50/1/8 12/1/7
f 10/3/14 58/13/13 23/12/12 9/2/11
f 12/1/7 52/1/17 20/1/16 14/1/15
f 7/5/21 55/5/20 32/5/19 6/5/18
f 3/9/25 28/15/24 26/14/23 2/8/22
f 16/3/29 64/17/28 41/16/27 15/6/26
f 6/5/18 34/5/32 38/5/31 8/5/30
f 5/11/36 46/19/35 44/18/34 4/10/33
f 20/1/16 19/5/39 18/21/38 21/20/37
f 29/1/42 28/5/24 27/21/41 30/20/40
f 38/1/44 37/5/44 36/21/43 39/20/43
f 47/1/47 46/5/47 45/21/46 48/20/45
f 56/1/50 55/5/20 54/21/49 57/20/48
f 23/1/12 22/5/52 21/21/37 24/20/51
f 26/1/23 25/5/53 24/21/51 18/20/38
f 24/5/51 21/21/37 18/20/38
f 22/1/52 14/5/15 20/21/16 21/20/37
f 25/1/53 9/5/11 23/21/12 24/20/51
f 19/1/39 2/5/22 26/21/23 18/20/38
f 32/1/19 31/5/55 30/21/40 33/20/54
f 35/1/56 34/5/56 33/21/54 27/20/41
f 33/5/54 30/21/40 27/20/41
f 31/1/55 11/5/57 29/21/42 30/20/40
f 34/1/32 6/5/18 32/21/19 33/20/54
f 28/1/24 3/5/25 35/21/58 27/20/41
f 41/1/27 40/5/61 39/21/60 42/20/59
f 44/1/63 43/5/63 42/21/62 36/20/62
f 42/5/59 39/21/60 36/20/64
f 40/1/61 8/5/30 38/21/31 39/20/60
f 43/1/65 15/5/26 41/21/27 42/20/59
f 37/1/67 4/5/33 44/21/34 36/20/66
f 50/1/8 49/5/69 48/21/45 51/20/68
f 53/1/70 52/5/17 51/21/68 45/20/46
f 51/5/68 48/21/45 45/20/46
f 49/1/69 17/5/72 47/21/71 48/20/45
f 52/1/17 12/5/7 50/21/8 51/20/68
f 46/1/35 5/5/36 53/21/70 45/20/46
f 59/1/74 58/5/13 57/21/73 60/20/73
f 62/1/77 61/5/9 60/21/76 63/20/75
f 65/1/78 64/5/28 63/21/75 54/20/49
f 63/1/75 60/5/79 57/21/79 54/20/49
f 58/1/13 10/5/14 56/21/50 57/20/48
f 61/1/9 13/5/10 59/21/74 60/20/76
f 64/1/28 16/5/29 62/21/77 63/20/75
f 55/1/20 7/5/21 65/21/78 54/20/49
f 61/1/9 62/1/77 49/1/69 50/1/8
f 62/1/77 16/1/29 17/1/72 49/1/69
f 58/13/13 59/23/74 22/22/52 23/12/12
f 59/23/74 13/25/10 14/24/15 22/22/52
f 52/1/17 53/1/70 19/1/39 20/1/16
f 53/1/70 5/1/36 2/1/22 19/1/39
f 55/5/20 56/5/50 31/5/55 32/5/19
f 56/5/50 10/5/14 11/5/57 31/5/55
f 28/15/24 29/27/42 25/26/53 26/14/23
f 29/27/42 11/29/57 9/28/11 25/26/53
f 64/17/28 65/31/78 40/30/61 41/16/27
f 65/31/78 7/32/21 8/20/30 40/30/61
f 34/5/56 35/5/56 37/5/44 38/5/44
f 35/5/58 3/5/25 4/5/33 37/5/67
f 46/19/47 47/34/47 43/33/63 44/18/63
f 47/34/71 17/7/72 15/6/26 43/33/65

